<?xml version="1.0" standalone="no"?>
<!DOCTYPE svg PUBLIC "-//W3C//DTD SVG 20010904//EN"
 "http://www.w3.org/TR/2001/REC-SVG-20010904/DTD/svg10.dtd">
<svg version="1.0" xmlns="http://www.w3.org/2000/svg"
 width="100.000000pt" height="100.000000pt" viewBox="0 0 100.000000 100.000000"
 preserveAspectRatio="xMidYMid meet">
<metadata>
Created by potrace 1.16, written by Peter Selinger 2001-2019
</metadata>
<g transform="translate(0.000000,100.000000) scale(0.100000,-0.100000)"
fill="#000000" stroke="none">
<path d="M492 734 c-22 -15 -31 -54 -12 -54 6 0 17 -15 26 -33 14 -29 20 -32
49 -29 25 3 36 -1 49 -19 9 -13 16 -31 16 -41 0 -11 7 -18 18 -18 10 0 29 -11
42 -25 27 -29 47 -31 78 -9 40 27 20 114 -26 114 -7 0 -12 7 -12 15 0 27 -39
57 -66 51 -16 -4 -24 -2 -24 7 0 7 -10 23 -23 35 -28 26 -82 29 -115 6z"/>
</g>
</svg>
