<?xml version="1.0" standalone="no"?>
<!DOCTYPE svg PUBLIC "-//W3C//DTD SVG 20010904//EN"
 "http://www.w3.org/TR/2001/REC-SVG-20010904/DTD/svg10.dtd">
<svg version="1.0" xmlns="http://www.w3.org/2000/svg"
 width="100.000000pt" height="100.000000pt" viewBox="0 0 100.000000 100.000000"
 preserveAspectRatio="xMidYMid meet">
<metadata>
Created by potrace 1.10, written by Peter Selinger 2001-2011
</metadata>
<g transform="translate(0.000000,100.000000) scale(0.100000,-0.100000)"
fill="#000000" stroke="none">
<path d="M485 690 c-3 -5 -3 -19 0 -30 7 -23 -10 -28 -19 -5 -6 15 -46 21 -46
7 0 -5 14 -21 30 -37 45 -43 38 -101 -9 -76 -12 7 -22 26 -26 51 -5 30 -11 40
-26 40 -22 0 -22 0 -9 -34 11 -29 4 -32 -24 -11 -10 8 -23 12 -27 9 -16 -10
-9 -33 11 -39 26 -8 26 -25 1 -25 -23 0 -37 -18 -24 -31 6 -6 25 -4 50 5 35
12 44 12 60 1 14 -11 16 -17 7 -32 -12 -18 -18 -19 -86 -7 -31 5 -38 4 -38
-10 0 -9 12 -19 26 -22 l27 -7 -24 -18 c-19 -14 -21 -21 -12 -30 10 -10 16 -9
31 4 26 24 33 21 21 -10 -6 -16 -6 -30 0 -36 15 -15 29 1 36 43 7 40 28 61 53
53 22 -8 13 -46 -20 -80 -26 -27 -29 -35 -19 -46 10 -10 16 -8 31 11 24 29 29
28 27 -5 -1 -19 3 -28 13 -28 10 0 15 10 15 28 -1 33 5 34 29 6 13 -16 21 -18
29 -10 8 8 2 20 -21 44 -33 34 -42 72 -19 80 24 8 45 -13 52 -53 7 -44 21 -58
38 -41 7 7 7 18 -1 36 -13 29 -6 32 20 8 15 -13 21 -14 31 -4 9 10 7 16 -10
31 l-23 18 25 6 c14 4 25 13 25 21 0 17 -27 19 -65 5 -48 -18 -90 26 -47 49
11 6 30 5 56 -4 43 -15 56 -12 56 11 0 8 -10 14 -25 14 -30 0 -33 16 -5 25 20
6 27 29 11 39 -4 3 -17 -1 -27 -9 -27 -21 -36 -18 -24 6 7 11 9 27 6 36 -9 23
-33 -1 -40 -41 -8 -40 -27 -59 -50 -50 -25 9 -19 37 14 69 17 16 30 35 30 42
0 18 -25 16 -40 -2 -18 -22 -26 -18 -25 12 0 27 -18 42 -30 23z m25 -70 c0 -5
-4 -10 -10 -10 -5 0 -10 5 -10 10 0 6 5 10 10 10 6 0 10 -4 10 -10z m17 -116
c3 -8 -2 -23 -11 -32 -15 -15 -17 -15 -32 0 -21 21 -11 48 16 48 11 0 23 -7
27 -16z m-17 -134 c0 -5 -4 -10 -10 -10 -5 0 -10 5 -10 10 0 6 5 10 10 10 6 0
10 -4 10 -10z"/>
</g>
</svg>
