<?xml version="1.0" standalone="no"?>
<!DOCTYPE svg PUBLIC "-//W3C//DTD SVG 20010904//EN"
 "http://www.w3.org/TR/2001/REC-SVG-20010904/DTD/svg10.dtd">
<svg version="1.0" xmlns="http://www.w3.org/2000/svg"
 width="100.000000pt" height="100.000000pt" viewBox="0 0 100.000000 100.000000"
 preserveAspectRatio="xMidYMid meet">
<metadata>
Created by potrace 1.10, written by Peter Selinger 2001-2011
</metadata>
<g transform="translate(0.000000,100.000000) scale(0.100000,-0.100000)"
fill="#000000" stroke="none">
<path d="M508 754 c-47 -25 -52 -48 -18 -83 17 -16 30 -40 30 -52 0 -18 3 -20
12 -11 33 33 115 -15 106 -62 -4 -19 0 -23 19 -23 13 0 37 -13 53 -28 23 -22
34 -26 57 -20 40 9 63 34 63 65 0 31 -33 70 -60 70 -14 0 -20 7 -20 23 0 43
-59 74 -87 46 -7 -7 -12 -1 -16 20 -4 20 -18 38 -39 51 -39 23 -63 25 -100 4z
m82 -24 c10 -5 27 -25 38 -44 16 -28 24 -33 46 -29 30 6 57 -12 54 -36 -2 -10
11 -23 35 -34 26 -13 37 -25 37 -41 0 -28 -18 -46 -46 -46 -32 0 -93 41 -100
67 -10 36 -51 67 -89 67 -24 0 -37 5 -40 17 -3 9 -14 24 -25 34 -19 17 -19 18
3 36 24 20 59 24 87 9z"/>
<path d="M360 700 c-10 -6 -2 -7 25 -3 49 7 58 13 19 13 -16 0 -36 -5 -44 -10z"/>
<path d="M292 600 c0 -14 2 -19 5 -12 2 6 2 18 0 25 -3 6 -5 1 -5 -13z"/>
<path d="M203 538 c-15 -20 -25 -38 -20 -38 3 0 12 11 21 25 17 26 16 35 -1
13z"/>
<path d="M171 464 c0 -11 3 -14 6 -6 3 7 2 16 -1 19 -3 4 -6 -2 -5 -13z"/>
<path d="M370 445 c-12 -16 -50 -93 -50 -104 0 -5 9 -7 20 -4 26 7 25 3 -6
-58 -14 -28 -21 -50 -16 -48 5 2 37 37 71 77 58 68 60 72 36 72 -30 0 -31 7
-5 40 11 14 20 28 20 31 0 10 -61 5 -70 -6z m40 -10 c0 -3 -7 -17 -16 -30 -9
-14 -12 -25 -6 -25 13 0 9 -33 -5 -37 -5 -2 -15 3 -22 11 -9 11 -8 22 6 50 9
20 23 36 30 36 7 0 13 -2 13 -5z"/>
<path d="M721 434 c0 -11 3 -14 6 -6 3 7 2 16 -1 19 -3 4 -6 -2 -5 -13z"/>
<path d="M194 401 c7 -11 46 -35 46 -28 0 3 -12 12 -26 22 -15 9 -23 12 -20 6z"/>
<path d="M697 393 c-14 -14 -41 -19 -125 -24 l-107 -5 98 -2 c97 -2 157 13
157 38 0 14 -3 13 -23 -7z"/>
</g>
</svg>
